<svg xmlns="http://www.w3.org/2000/svg" fill="#fff" stroke="#000" stroke-linecap="round" stroke-linejoin="round" viewBox="0 0 1051 702">
  <path fill="#f4b4b0" stroke-linejoin="miter" d="M45.1 106.6a65 65 0 0 1 65.2-65.2h828.2a65 65 0 0 1 65.2 65.2V589a65 65 0 0 1-65.2 65.3H110.3A65 65 0 0 1 45.1 589z"/>
  <path fill="#3e576d" stroke="none" d="M167.5 1.3a128 128 0 0 0-48.7 11.8c-1.6 1-3.4 2-4.4 2-.8 0-2.9.7-4.8 1.6l-11.1 5.6c-11.8 5.6-25.9 16.7-43 34A167.7 167.7 0 0 0 6.7 138C.5 164.7.5 162.7.3 347.6c-.6 183.9-.7 181.5 5.4 209.5a127 127 0 0 0 14.1 39.3A168.2 168.2 0 0 0 57.5 647c25.4 25.5 41.4 35.3 73.3 45.3 7.3 2.2 16.6 4.7 20.9 5.5 5.3.9 111.6 1.3 368.8 1.8 399.9.7 375.4 1 398.2-6.8a235.7 235.7 0 0 0 49.6-25.1 210.4 210.4 0 0 0 45.7-48c19.2-27.7 31-59.8 34.2-93.3 1.6-16.3 1.6-339.2 0-358.8a191 191 0 0 0-10-50.6l-5.3-12.4c-9-22.1-27-45.6-47.7-63.1-12-11.2-26-20-41.2-26.2-2.6-1-5.5-2.2-6.5-3-3.8-3.1-23.5-8.1-42.8-10.7C883.7.3 830.7-.1 527 0L167.5 1.3zm735.2 54.8a138 138 0 0 1 57 34.8c21.2 23.2 37.2 63 36.5 90v165.7l-.6 160.5a28 28 0 0 0-.5 7.8c.3 5.9-.2 9.4-2.6 21.3a192.5 192.5 0 0 1-21.8 50.6 125.6 125.6 0 0 1-72.7 53.5l-14 3.6-345.9.4c-212.2.1-352.9 0-364.1-.8-14.4-.8-20.4-1.8-28.3-4.3a126.7 126.7 0 0 1-68.5-51.8 119.2 119.2 0 0 1-21-47.3c-2-10.7-2.2-17.5-2-180.8L54 181.6C53.5 152.9 73.4 111 98 89c9-8 23.7-18.3 32.7-22.9 9.6-4.8 26.3-10.5 35.2-12 3.8-.6 153.6-1 366.9-.9l360.7.4 9.2 2.6z"/>
  <g stroke-linejoin="miter">
    <path fill="#d3fdef" d="M129.9 145.7h789v397.8H130z"/>
    <path fill="#7defdc" d="M129.9 145.7h156.5v124H130zm-6.5 280.4h156.5v124H123.4z"/>
  </g>
  <path fill="#43576b" stroke="none" d="M150.8 100.8c-6.8 1.3-20.2 6.6-26.5 10.2a95 95 0 0 0-37.7 52.4c-2.3 8.4-2.3 11-2.3 177 0 180.7 0 175.3 5.8 191.2 4.8 11.6 12 22 21.2 30.7a63.9 63.9 0 0 0 20.2 14.3c20 9.8-13.6 9.2 395.8 8.6l371.2-2.3c13-3.5 24.1-10 33.5-19a56 56 0 0 0 14.3-20.7 163 163 0 0 0 9-22.4l2.5-10V139.2l-2.6-6.2a64.8 64.8 0 0 0-22.2-22.4c-2.4-1.3-9.6-4.2-15.6-6.3l-11.4-3.9-375.2-.2-380 .7zM254.2 155c7 4.1 7.2 6 7.2 47.2 0 35.7-.2 37.4-2.6 40.4a23.5 23.5 0 0 1-7 5.7c-4.3 2.4-7.4 2.7-45.7 3.4a801 801 0 0 1-47.4.3c-7.9-.9-14.8-5.8-18.1-13-2-4.7-2.4-7.5-2-31l.3-25.4 3.5-7.2a46.7 46.7 0 0 1 25.5-23.2c.9-.2 19.8-.4 42-.1 38.4.4 40.6.5 44.3 2.9zm160-2c2.1 1 5.4 3.7 7.3 6.1l3.4 4.3.3 34.3c.4 37.2 0 42-5.5 47-6.7 6.5-9.4 7-49.2 7.7-32.8.4-37.4.3-42.1-1.4-5.5-2.3-14.3-10.9-15.4-15.4-.4-1.3-.5-18-.2-37.3l.3-34.9 3.2-4c6-7.8 6.2-8 52.4-8 32.9 0 42.4.3 45.5 1.6zm160.4.3c2.1 1 5.3 3.9 6.8 6.2l2.9 4.2v34.7c0 19.2-.5 36.5-1.2 39-1.3 5-6 9.6-12.4 12.5-4 1.7-9.4 2.1-39.2 2.5-19 .1-36.3 0-38.2-.3a30 30 0 0 1-15.7-13c-1-2.8-1.4-13.2-1.7-40-.2-40.4-.4-39 8.4-45.2 3.9-2.6 4.3-2.6 45-2.6 35.7 0 41.7.3 45.2 2zm159.5-.3a21 21 0 0 1 7.3 6.1l3.4 4.3V201c0 35.7-.2 37.4-2.6 41.3-1.4 2.1-4.7 5.2-7.4 6.8-5 2.7-5.9 2.9-38.9 3.4-42.4.6-45 .3-52.3-6-8.7-7.8-8.7-7.8-8.7-48.3 0-35 0-35.8 2.6-39 1.3-1.8 4-4.3 6.1-5.4 3.4-2.3 6.6-2.4 45.2-2.4 32.8 0 42.3.4 45.3 1.7zm160.5.8c2.2 1.3 5.4 4.8 7.4 7.8l3.5 5.5v34.2c0 32.2-.1 34.3-2.5 39a19.2 19.2 0 0 1-7.8 8.4l-5.6 3.3h-79.2l-5.2-3.5a27.4 27.4 0 0 1-7.5-8.9c-2.6-5-2.8-6.3-2.8-40.4 0-39 0-39.4 7.8-44.9l4.6-3H849c39.7 0 42 .1 45.7 2.5zM252.8 302a22 22 0 0 1 7 6.2c2.3 3.7 2.3 5.1 2 39l-.7 35-4 4c-6 6.1-9.8 6.5-60.6 6.1l-44.8-.4-4.6-3.6c-8.5-6.7-8.6-7.6-8.6-44.2v-32.5l3.1-4c7-8.3 5.3-8 58.5-8 46 0 48 .1 52.7 2.4zm163.2 0a27 27 0 0 1 7.2 5.6c2.6 3 2.6 3.9 2.1 38.6-.3 39.7-.3 39.5-9.6 44-4.7 2.3-7 2.4-46 2.4H328l-5.6-3.5c-9.5-6.2-10.1-8.2-10.1-44.5 0-28.7 0-31.3 2.3-35.6a17 17 0 0 1 7-7c4-2.1 6.7-2.3 46.9-2.4 40.3 0 43 .1 47.2 2.4zm159.4-1c1.3.7 4 2.5 5.9 4.2l3.1 3.1V382l-4.4 4.5a19.6 19.6 0 0 1-8.5 5.2c-2 .5-20.7.9-41.5.9-39.2 0-41.7-.3-47.4-5.5-6.6-6-6.4-5.3-6.4-42.9 0-33.9.1-35 2.6-38 4.8-6.3 6.4-6.5 51.9-6.6 29 0 43 .5 44.7 1.3zm158.7.3c2.3.8 5.4 3.3 7.2 5.2l3.2 4v35.4c0 32.9 0 35.7-2.3 39.1-4.4 7.2-7.7 7.7-52.5 7.3l-40.2-.4-4.8-3.3c-9.2-6.4-9.7-8.5-9.7-46v-33l3-3.2c5.9-6.8 5.9-6.8 50.9-6.8 32.3 0 42.4.4 45.2 1.7zm163 1.6c8.6 5.4 8.8 6.5 8.3 44.7-.5 48.6 3.8 45.3-55.8 44.7l-42.2-.4-4.4-3.2c-7.8-6-8-7.3-8-44.4 0-20.8.6-33.7 1.4-35.4.6-1.6 3-4.2 5.3-6l4.3-3.3h86.2l5 3.3zm-643 140c7.5 4.2 8 6.3 7.7 44.9 0 38-.4 41-6.6 44-5 2.7-88.4 3-94.5.5a52.2 52.2 0 0 1-18.3-19.8L139 506v-54.7l3.7-3.5c4-4.3 6.9-6 11.7-7 2-.4 24.4-.6 50-.3 41 .4 47 .5 50 2.3zm482.1-.2c2.1 1.3 5 3.9 6.4 5.6 2.4 3.1 2.4 4.8 2.8 42 .4 36.8.2 38.7-1.9 41-2 2-5 2.3-38 3-19.6.5-113.5.6-208.7.6L320 533c-7-3-7.5-4.7-7.5-44.1 0-34 .2-35.8 2.6-39.4 2.5-4.3 7.2-8.2 11-9.1 1.3-.3 93.1-.6 204.2-.4l205.8 2.6zm160.5-.4c1 .5 3.6 3.5 5.6 6.5l3.4 5.5v56.6l-3.4 7.2c-7.3 15.4-12.8 16.8-61 16.5-49.4-.4-46.2 2.8-46.2-47 0-18.6.5-34.9 1-36.4 1.7-4 5.2-7.9 9.6-9.7 3.3-1.3 11-1.6 46.3-1a543 543 0 0 1 44.5 1.8z"/>
</svg>
